<svg xmlns="http://www.w3.org/2000/svg" viewBox="0 0 740 520" fill="none">
  <rect x="28" y="18" width="684" height="484" rx="16" fill="#ffffff" stroke="#c6c6cd" stroke-width="1.5"/>
  <text x="68" y="52" font-family="Inter, sans-serif" font-size="15" font-weight="600" fill="#0b1c30">StateFlow</text>
  <rect x="68" y="70" width="604" height="100" rx="10" fill="#f8f9ff" stroke="#c6c6cd" stroke-width="1"/>
  <rect x="86" y="96" width="86" height="32" rx="8" fill="#dce9ff" stroke="#0058be" stroke-width="1"/>
  <text x="129" y="117" font-family="Inter, sans-serif" font-size="12" font-weight="600" fill="#0058be" text-anchor="middle">START</text>
  <rect x="220" y="96" width="86" height="32" rx="8" fill="#d1fae5" stroke="#10b981" stroke-width="1"/>
  <text x="263" y="117" font-family="Inter, sans-serif" font-size="12" font-weight="600" fill="#065f46" text-anchor="middle">ACTIVE</text>
  <rect x="354" y="96" width="86" height="32" rx="8" fill="#d1fae5" stroke="#10b981" stroke-width="1"/>
  <text x="397" y="117" font-family="Inter, sans-serif" font-size="12" font-weight="600" fill="#065f46" text-anchor="middle">ACTIVE</text>
  <rect x="488" y="96" width="86" height="32" rx="8" fill="#dbeafe" stroke="#3b82f6" stroke-width="1"/>
  <text x="531" y="117" font-family="Inter, sans-serif" font-size="12" font-weight="600" fill="#1e40af" text-anchor="middle">ACTIVE</text>
  <text x="100" y="82" font-family="Inter, sans-serif" font-size="12" font-weight="600" fill="#45464d">Layer A: Order Processing</text>
  <line x1="172" y1="112" x2="220" y2="112" stroke="#94a3b8" stroke-width="1.5" stroke-dasharray="4,3"/>
  <line x1="306" y1="112" x2="354" y2="112" stroke="#94a3b8" stroke-width="1.5" stroke-dasharray="4,3"/>
  <line x1="440" y1="112" x2="488" y2="112" stroke="#94a3b8" stroke-width="1.5" stroke-dasharray="4,3"/>
  <rect x="68" y="188" width="604" height="100" rx="10" fill="#f8f9ff" stroke="#c6c6cd" stroke-width="1"/>
  <rect x="86" y="214" width="86" height="32" rx="8" fill="#dce9ff" stroke="#0058be" stroke-width="1"/>
  <text x="129" y="235" font-family="Inter, sans-serif" font-size="12" font-weight="600" fill="#0058be" text-anchor="middle">START</text>
  <rect x="270" y="214" width="86" height="32" rx="8" fill="#d1fae5" stroke="#10b981" stroke-width="1"/>
  <text x="313" y="235" font-family="Inter, sans-serif" font-size="12" font-weight="600" fill="#065f46" text-anchor="middle">ACTIVE</text>
  <rect x="488" y="214" width="86" height="32" rx="8" fill="#d1fae5" stroke="#10b981" stroke-width="1"/>
  <text x="531" y="235" font-family="Inter, sans-serif" font-size="12" font-weight="600" fill="#065f46" text-anchor="middle">COMPLETE</text>
  <text x="100" y="200" font-family="Inter, sans-serif" font-size="12" font-weight="600" fill="#45464d">Layer B: Payment</text>
  <line x1="172" y1="230" x2="270" y2="230" stroke="#94a3b8" stroke-width="1.5" stroke-dasharray="4,3"/>
  <line x1="356" y1="230" x2="488" y2="230" stroke="#94a3b8" stroke-width="1.5" stroke-dasharray="4,3"/>
  <rect x="68" y="306" width="604" height="100" rx="10" fill="#f8f9ff" stroke="#c6c6cd" stroke-width="1"/>
  <rect x="86" y="332" width="86" height="32" rx="8" fill="#dce9ff" stroke="#0058be" stroke-width="1"/>
  <text x="129" y="353" font-family="Inter, sans-serif" font-size="12" font-weight="600" fill="#0058be" text-anchor="middle">START</text>
  <rect x="270" y="332" width="86" height="32" rx="8" fill="#d1fae5" stroke="#10b981" stroke-width="1"/>
  <text x="313" y="353" font-family="Inter, sans-serif" font-size="12" font-weight="600" fill="#065f46" text-anchor="middle">ACTIVE</text>
  <rect x="488" y="332" width="86" height="32" rx="8" fill="#fee2e2" stroke="#ef4444" stroke-width="1"/>
  <text x="531" y="353" font-family="Inter, sans-serif" font-size="12" font-weight="600" fill="#991b1b" text-anchor="middle">HALTED</text>
  <text x="100" y="318" font-family="Inter, sans-serif" font-size="12" font-weight="600" fill="#45464d">Layer C: Inventory</text>
  <line x1="172" y1="350" x2="270" y2="350" stroke="#94a3b8" stroke-width="1.5" stroke-dasharray="4,3"/>
  <line x1="356" y1="350" x2="488" y2="350" stroke="#94a3b8" stroke-width="1.5" stroke-dasharray="4,3"/>
  <rect x="86" y="434" width="90" height="28" rx="14" fill="#dbeafe" stroke="#3b82f6" stroke-width="1"/>
  <text x="131" y="453" font-family="Inter, sans-serif" font-size="11" font-weight="600" fill="#1e40af" text-anchor="middle">HUMAN</text>
  <rect x="196" y="434" width="90" height="28" rx="14" fill="#dbeafe" stroke="#3b82f6" stroke-width="1"/>
  <text x="241" y="453" font-family="Inter, sans-serif" font-size="11" font-weight="600" fill="#1e40af" text-anchor="middle">AI AGENT</text>
  <rect x="306" y="434" width="90" height="28" rx="14" fill="#dbeafe" stroke="#3b82f6" stroke-width="1"/>
  <text x="351" y="453" font-family="Inter, sans-serif" font-size="11" font-weight="600" fill="#1e40af" text-anchor="middle">SYSTEM</text>
  <text x="86" y="425" font-family="Inter, sans-serif" font-size="11" font-weight="500" fill="#45464d">Actors: events from</text>
  <line x1="131" y1="192" x2="313" y2="214" stroke="#0058be" stroke-width="1.5" stroke-dasharray="4,3" opacity="0.5"/>
  <circle cx="131" cy="192" r="3" fill="#0058be" opacity="0"/>
  <text x="200" y="204" font-family="Inter, sans-serif" font-size="9" font-weight="500" fill="#0058be" opacity="0.6">Domain Event</text>
  <line x1="313" y1="266" x2="531" y2="332" stroke="#0058be" stroke-width="1.5" stroke-dasharray="4,3" opacity="0.5"/>
  <text x="395" y="296" font-family="Inter, sans-serif" font-size="9" font-weight="500" fill="#0058be" opacity="0.6">Domain Event</text>
</svg>
